<svg width="26" height="26" viewBox="0 0 26 26" fill="none" xmlns="http://www.w3.org/2000/svg">
<path fill-rule="evenodd" clip-rule="evenodd" d="M12.4382 4.78092C10.1815 3.98915 8.19941 0.704346 8.19941 0.704346C8.19941 0.704346 9.12058 4.42859 8.08468 6.58422C6.58402 6.06068 5.25051 5.07779 5.25051 5.07779C5.25051 5.07779 6.2334 6.4113 6.75694 7.91195C4.60131 8.94785 0.877075 8.02668 0.877075 8.02668C0.877075 8.02668 4.16188 10.0087 4.95365 12.2655C3.52233 12.9564 1.88438 13.2043 1.88438 13.2043C1.88438 13.2043 3.52233 13.4523 4.95365 14.1432C4.16188 16.3999 0.877075 18.382 0.877075 18.382C0.877075 18.382 4.60131 17.4608 6.75694 18.4967C6.23341 19.9974 5.25051 21.3309 5.25051 21.3309C5.25051 21.3309 6.58402 20.348 8.08468 19.8245C9.12058 21.9801 8.19941 25.7043 8.19941 25.7043C8.19941 25.7043 10.1815 22.4195 12.4382 21.6278C13.1291 23.0591 13.3771 24.697 13.3771 24.697C13.3771 24.697 13.625 23.0591 14.3159 21.6278C16.5727 22.4195 18.5547 25.7043 18.5547 25.7043C18.5547 25.7043 17.6336 21.9801 18.6695 19.8245C20.1701 20.348 21.5036 21.3309 21.5036 21.3309C21.5036 21.3309 20.5207 19.9974 19.9972 18.4967C22.1528 17.4608 25.8771 18.382 25.8771 18.382C25.8771 18.382 22.5923 16.3999 21.8005 14.1432C23.2318 13.4523 24.8698 13.2043 24.8698 13.2043C24.8698 13.2043 23.2318 12.9564 21.8005 12.2655C22.5923 10.0088 25.8771 8.02668 25.8771 8.02668C25.8771 8.02668 22.1528 8.94785 19.9972 7.91195C20.5207 6.41129 21.5036 5.07779 21.5036 5.07779C21.5036 5.07779 20.1701 6.06068 18.6695 6.58422C17.6336 4.42859 18.5547 0.704346 18.5547 0.704346C18.5547 0.704346 16.5727 3.98916 14.3159 4.78092C13.625 3.3496 13.3771 1.71166 13.3771 1.71166C13.3771 1.71166 13.1291 3.3496 12.4382 4.78092Z" fill="#F9F3DE"/>
</svg>
